<?xml version="1.0" standalone="no"?>
<!DOCTYPE svg PUBLIC "-//W3C//DTD SVG 20010904//EN"
 "http://www.w3.org/TR/2001/REC-SVG-20010904/DTD/svg10.dtd">
<svg version="1.0" xmlns="http://www.w3.org/2000/svg"
 width="321.000000pt" height="321.000000pt" viewBox="0 0 321.000000 321.000000"
 preserveAspectRatio="xMidYMid meet">
<metadata>
Created by potrace 1.10, written by Peter Selinger 2001-2011
</metadata>
<g transform="translate(0.000000,321.000000) scale(0.100000,-0.100000)"
fill="#d95252" stroke="none">
<path d="M0 1605 l0 -1605 1605 0 1605 0 0 1605 0 1605 -1605 0 -1605 0 0
-1605z m1856 1350 c10 -8 36 -15 57 -15 22 0 55 -7 75 -16 82 -35 108 -47 122
-55 8 -5 27 -14 43 -20 15 -6 27 -15 27 -20 0 -5 6 -9 13 -9 35 0 203 -202
233 -280 3 -8 11 -28 18 -45 29 -67 39 -103 47 -165 4 -36 12 -83 18 -105 6
-24 11 -177 11 -376 0 -279 -2 -338 -15 -355 -8 -10 -15 -28 -15 -39 0 -11 -6
-29 -14 -40 -7 -11 -16 -40 -19 -65 -4 -25 -11 -67 -16 -95 -6 -27 -10 -76
-10 -108 -1 -32 -8 -74 -16 -94 -8 -19 -15 -64 -15 -100 0 -47 -4 -65 -15 -69
-8 -4 -15 -13 -15 -21 0 -8 -13 -32 -30 -53 -16 -21 -30 -45 -30 -54 0 -9 -7
-19 -15 -22 -8 -4 -15 -12 -15 -20 0 -7 -14 -33 -30 -57 -16 -25 -30 -49 -30
-54 0 -5 -5 -14 -11 -20 -17 -17 -69 12 -69 38 0 11 -7 22 -15 25 -8 4 -15 18
-15 34 0 15 7 44 15 63 8 20 15 49 15 65 0 16 7 35 15 42 8 7 15 23 15 35 0
12 7 28 15 35 8 7 15 19 15 27 0 8 12 32 28 52 15 20 32 45 39 56 7 11 27 45
45 75 43 71 68 132 68 171 0 17 6 32 15 35 24 9 22 220 -2 247 -16 17 -18 39
-17 177 1 123 5 165 18 192 14 30 16 64 13 229 -5 261 -12 286 -96 356 -36 29
-70 53 -77 53 -6 0 -17 7 -24 15 -7 8 -20 15 -30 15 -10 0 -23 7 -30 15 -7 8
-24 15 -39 15 -15 0 -37 7 -49 16 -12 8 -35 14 -50 12 -25 -3 -28 -8 -44 -78
-9 -41 -17 -94 -17 -117 -1 -23 -8 -68 -16 -100 -8 -31 -15 -93 -15 -138 0
-51 -5 -90 -15 -109 -9 -16 -15 -55 -15 -90 0 -70 -4 -77 -47 -100 -44 -22
-320 -23 -362 -1 -40 20 -61 79 -61 169 0 40 -6 89 -14 107 -7 19 -16 77 -19
129 -4 52 -11 111 -17 130 -5 19 -10 58 -10 86 0 60 -24 114 -50 114 -10 0
-31 -7 -46 -15 -16 -8 -39 -15 -50 -15 -12 0 -27 -7 -34 -15 -7 -8 -19 -15
-26 -15 -34 0 -166 -90 -200 -137 -18 -24 -23 -49 -28 -138 -7 -135 -8 -107 2
-315 4 -106 12 -184 20 -197 17 -31 16 -154 -3 -179 -8 -11 -14 -42 -15 -75 0
-31 -7 -77 -14 -104 -13 -42 -13 -51 0 -69 7 -11 14 -41 14 -67 0 -29 6 -51
15 -59 8 -7 15 -23 15 -36 0 -22 63 -139 81 -150 5 -3 9 -14 9 -25 0 -10 5
-19 10 -19 6 0 15 -10 21 -22 15 -34 35 -68 48 -81 6 -6 11 -19 11 -28 0 -9 7
-22 15 -29 8 -7 15 -26 15 -42 0 -16 6 -39 14 -51 22 -35 29 -127 11 -157 -8
-14 -19 -37 -26 -52 -6 -16 -16 -28 -22 -28 -12 1 -57 64 -57 81 0 5 -4 9 -9
9 -5 0 -14 12 -20 27 -12 28 -16 35 -61 108 -78 124 -86 146 -93 270 -3 61
-11 126 -17 145 -5 19 -10 62 -10 95 -1 33 -7 71 -15 85 -8 14 -14 35 -15 46
0 12 -7 27 -15 34 -12 10 -15 37 -15 119 0 58 -7 165 -15 236 -19 164 -19 190
0 209 12 12 15 44 15 161 0 94 4 154 12 168 6 12 15 40 19 62 9 50 32 112 47
127 7 7 12 20 12 29 0 9 7 22 15 29 8 7 15 17 15 22 0 23 149 183 185 199 11
5 34 18 50 29 17 11 37 23 45 26 8 3 29 12 45 19 88 39 106 45 138 45 19 0 48
7 63 15 42 21 361 22 390 0z m-746 -1470 c7 -8 18 -15 25 -15 8 0 26 -6 42
-14 59 -30 105 -46 126 -46 12 0 32 -6 43 -14 11 -8 42 -16 69 -18 57 -4 74
-22 59 -65 -8 -24 -15 -28 -44 -26 -87 5 -180 28 -242 59 -14 8 -35 14 -46 14
-12 0 -24 5 -27 11 -4 5 -18 14 -31 19 -20 8 -24 16 -24 53 0 24 3 47 7 50 11
11 30 8 43 -8z m1138 -38 c3 -42 1 -48 -21 -56 -14 -6 -28 -15 -32 -20 -3 -6
-15 -11 -27 -11 -11 0 -32 -6 -46 -14 -43 -22 -94 -38 -147 -47 -27 -5 -67
-11 -87 -15 -34 -5 -39 -3 -49 20 -9 20 -9 32 -1 51 10 21 18 25 55 25 24 0
52 7 63 15 10 8 31 15 46 15 26 0 72 17 130 46 14 8 33 14 41 14 8 0 20 7 27
15 25 30 45 13 48 -38z m-338 -717 c0 -6 8 -18 18 -28 24 -24 47 -71 39 -79
-4 -3 -18 -1 -32 5 -37 17 -508 17 -535 0 -14 -9 -22 -10 -31 -1 -16 16 -3 46
33 82 l32 31 238 0 c152 0 238 -4 238 -10z m-124 -295 c13 -10 45 -14 102 -15
121 0 123 -28 6 -105 l-52 -35 -179 0 -179 0 -50 35 c-86 60 -94 68 -94 80 0
19 24 25 109 25 52 0 83 5 97 15 27 20 212 21 240 0z"/>
</g>
</svg>
